<svg width="55" height="39" viewBox="0 0 55 39" fill="none" xmlns="http://www.w3.org/2000/svg">
<path d="M53.9095 11.6626L30.1441 0.723055C29.3732 0.367998 28.5521 0.188843 27.7038 0.188843C26.8554 0.188843 26.0345 0.367998 25.2635 0.723055L1.49801 11.6626C1.10519 11.8442 0.851562 12.2399 0.851562 12.6724C0.851562 13.1049 1.10519 13.5006 1.49801 13.6822L25.2635 24.6217C26.0343 24.9768 26.8554 25.1568 27.7038 25.1568C28.5521 25.1568 29.3732 24.9768 30.1443 24.6217L48.9001 15.9885V24.682C48.1558 24.7659 47.5754 25.3995 47.5754 26.165C47.5754 26.832 48.0167 27.4094 48.6459 27.5934L47.3775 35.9628H53.2175L51.9493 27.5934C52.5783 27.4094 53.0196 26.832 53.0196 26.165C53.0196 25.3995 52.4392 24.7659 51.6949 24.682V14.7018L53.9097 13.6822C54.3025 13.5006 54.5562 13.1049 54.5562 12.6724C54.5562 12.2399 54.3024 11.8442 53.9095 11.6626Z" fill="white"/>
<path d="M27.7038 29.1179C26.5242 29.1179 25.3812 28.8671 24.3068 28.3727L12.6826 23.0215V33.6824C12.6826 36.023 19.755 38.9921 27.7038 38.9921C35.6527 38.9921 42.7252 36.0229 42.7252 33.6824V23.0215L31.1004 28.3727C30.0266 28.8671 28.8838 29.1179 27.7038 29.1179Z" fill="white"/>
</svg>
